<svg xmlns="http://www.w3.org/2000/svg" viewBox="0 0 512 512" role="img" aria-label="Gestão EPI">
  <defs>
    <linearGradient id="shield" x1="70" y1="55" x2="445" y2="455" gradientUnits="userSpaceOnUse">
      <stop offset="0" stop-color="#063E70"/>
      <stop offset="0.48" stop-color="#0B4F7A"/>
      <stop offset="0.53" stop-color="#08C894"/>
      <stop offset="1" stop-color="#00A878"/>
    </linearGradient>
  </defs>
  <path d="M256 42 420 123v127c0 103-61 174-164 218C153 424 92 353 92 250V123L256 42Z" fill="none" stroke="url(#shield)" stroke-width="28" stroke-linejoin="round"/>
  <path d="M168 196c6-44 32-76 72-89V88h33v19c40 13 66 45 72 89H168Z" fill="#083F6E"/>
  <rect x="155" y="192" width="202" height="24" rx="12" fill="#083F6E"/>
  <circle cx="256" cy="258" r="45" fill="#083F6E"/>
  <path d="M157 378c12-59 45-93 99-93s87 34 99 93l-13 33H170l-13-33Z" fill="#083F6E"/>
  <path d="m191 351 44 45 93-97" fill="none" stroke="#08BE8C" stroke-width="30" stroke-linecap="round" stroke-linejoin="round"/>
</svg>
