<svg xmlns="http://www.w3.org/2000/svg" viewBox="0 0 512 512"><defs><linearGradient id="g" x1="0" y1="0" x2="1" y2="1"><stop stop-color="#0f766e"/><stop offset="1" stop-color="#0e1a43"/></linearGradient></defs><rect width="512" height="512" rx="112" fill="url(#g)"/><path d="M256 92c-71 0-128 57-128 128v28h-20c-18 0-32 14-32 32v104c0 18 14 32 32 32h296c18 0 32-14 32-32V280c0-18-14-32-32-32h-20v-28c0-71-57-128-128-128Zm0 52c42 0 76 34 76 76v28H180v-28c0-42 34-76 76-76Z" fill="#fff" opacity=".97"/><circle cx="256" cy="332" r="38" fill="#31c7b2"/><path d="M249 300h14v64h-14z" fill="#0e1a43"/><path d="M224 325h64v14h-64z" fill="#0e1a43"/></svg>